<?xml version="1.0" encoding="UTF-8"?> <svg xmlns="http://www.w3.org/2000/svg" id="Layer_1" data-name="Layer 1" viewBox="0 0 239.25 56.72"><defs><style> .cls-1, .cls-2 { fill: #fff; } .cls-2, .cls-3 { fill-rule: evenodd; } .cls-3 { fill: #e63527; } </style></defs><path class="cls-3" d="m28.27,0h182.71c15.55,0,28.27,12.76,28.27,28.36s-12.72,28.36-28.27,28.36H28.27c-15.55,0-28.27-12.76-28.27-28.36S12.72,0,28.27,0"></path><path class="cls-2" d="m203.03,36.22c-6.83,0-10.49-2.87-10.49-7.59,0-2.48,1.06-4.49,3.15-5.94,2.12-1.46,4.98-2.2,8.57-2.2,6.75,0,10.49,2.91,10.49,7.59,0,2.48-1.03,4.48-3.15,5.94-2.12,1.46-4.98,2.2-8.57,2.2m14.76,2.91c3.68-2.79,5.54-6.41,5.54-10.77s-1.86-7.94-5.54-10.73c-3.68-2.79-8.39-4.21-14.14-4.21s-10.49,1.42-14.17,4.21c-3.68,2.79-5.51,6.37-5.51,10.73s1.83,7.98,5.51,10.77c3.68,2.79,8.42,4.17,14.17,4.17s10.46-1.38,14.14-4.17Zm-64.09-5.7v-2.32l17.9.04c1.91,0,2.86.67,2.86,1.96s-.8,1.93-2.42,1.93h-18.35v-1.61h0Zm-7.95,8.69h27.27c6.57,0,9.39-3.22,9.39-8.1,0-2.48-1.24-4.71-3.32-6.18,1.7-1.4,2.7-3.34,2.7-5.49,0-4.66-2.78-7.75-9.24-7.75h-26.81v27.51h0Zm-72.72-5.9c-6.83,0-10.49-2.87-10.49-7.59,0-2.48,1.06-4.48,3.15-5.94,2.12-1.46,4.98-2.2,8.57-2.2,6.75,0,10.52,2.91,10.49,7.59.03,2.48-1.03,4.48-3.15,5.94-2.12,1.46-4.98,2.2-8.57,2.2h0Zm14.76,2.91c3.68-2.79,5.54-6.41,5.54-10.77s-1.86-7.94-5.54-10.73c-3.68-2.79-8.39-4.21-14.14-4.21s-10.49,1.42-14.17,4.21-5.51,6.37-5.51,10.73,1.83,7.98,5.51,10.77c3.68,2.79,8.42,4.17,14.17,4.17s10.46-1.38,14.14-4.17Zm53.3,2.99h-7.95v-16.93l-14.02,17.05h-.09l-14.02-17.05v16.93h-7.95V14.6h9.93l12.07,14.73.02.08.02-.08,12.07-14.73h9.93v27.52h0Zm-104.16,1.18c5.18,0,10.07-1.1,14.64-3.26l-.59-9.32c-1.38,1.57-3.42,2.87-6.1,3.93-2.65,1.06-5.3,1.57-7.95,1.57-8.25,0-12.37-2.63-12.37-7.86,0-2.4,1.09-4.28,3.27-5.7,2.21-1.46,5.24-2.16,9.1-2.16,6.1,0,10.16,1.93,11.69,5.11h2.36v-8.8c-3.86-2.24-8.54-3.38-14.05-3.38-12.08-.16-21.12,6.29-20.94,14.94-.18,8.65,8.86,15.1,20.94,14.94h0Zm118.35-21.92h-1.71v3.76l17.6-.04c1.88,0,2.81-.64,2.81-1.88s-.78-1.84-2.37-1.84h-16.33Z"></path><path class="cls-1" d="m185.04,15.26c-.12-.12-.26-.21-.42-.28-.15-.06-.32-.1-.49-.1s-.34.03-.49.1c-.16.07-.3.16-.42.28s-.21.26-.28.42c-.06.15-.1.32-.1.49s.04.34.1.49c.07.16.16.3.28.42.12.12.26.21.42.28.15.06.32.1.49.1s.34-.03.49-.1c.16-.07.3-.16.42-.28s.21-.26.28-.42c.06-.15.1-.32.1-.49s-.03-.34-.1-.49c-.07-.16-.16-.3-.28-.42m-.48,1l.44.84h-.4l-.4-.8h-.41v.8h-.34v-1.96h.86c.06,0,.11,0,.16.02s.1.03.14.05c.05.02.08.05.12.09s.06.07.09.12c.02.04.04.09.05.14.01.05.02.11.02.16s0,.11-.02.16c-.01.05-.03.1-.05.14-.02.05-.05.08-.09.12-.03.03-.08.06-.12.09l-.06.03h0Zm-.77-.28h.53s.04,0,.06,0c.02,0,.04-.01.05-.02s.03-.02.04-.04c.01-.02.02-.03.03-.05,0-.02.02-.04.02-.06,0-.02,0-.05,0-.07s0-.05,0-.07c0-.02-.01-.04-.02-.06,0-.02-.02-.04-.03-.05s-.03-.03-.04-.04-.03-.02-.05-.02c-.02,0-.04,0-.06,0h-.53v.51h0Zm.34-1.42c.22,0,.43.04.62.12.2.08.38.2.52.35s.27.33.35.52c.08.19.12.4.12.62s-.04.43-.12.62c-.08.2-.2.38-.35.52s-.33.27-.52.35c-.19.08-.4.12-.62.12s-.43-.04-.62-.12c-.2-.08-.38-.2-.52-.35s-.27-.33-.35-.52c-.08-.19-.12-.4-.12-.62s.04-.43.12-.62c.08-.2.2-.38.35-.52s.33-.27.52-.35c.19-.08.4-.12.62-.12Z"></path></svg> 